<svg width="480" height="480" viewBox="0 0 480 480" fill="none" xmlns="http://www.w3.org/2000/svg">
<path d="M240 0C107.453 0 0 107.453 0 240C0 372.547 107.453 480 240 480C372.547 480 480 372.547 480 240C479.852 107.516 372.484 0.148438 240 0ZM447.566 324.078L379.312 335.855C387.125 307.203 391.344 277.691 391.871 248H463.801C462.898 274.117 457.402 299.871 447.566 324.078V324.078ZM16.1992 248H88.1289C88.6563 277.691 92.875 307.203 100.688 335.855L32.4336 324.078C22.5977 299.871 17.1016 274.117 16.1992 248ZM32.4336 155.922L100.688 144.145C92.875 172.797 88.6563 202.309 88.1289 232H16.1992C17.1016 205.883 22.5977 180.129 32.4336 155.922ZM248 128.449C276.746 128.816 305.422 131.434 333.762 136.281L362 141.152C370.676 170.676 375.344 201.23 375.879 232H248V128.449ZM336.488 120.512C307.25 115.516 277.66 112.816 248 112.449V16.4492C293.863 20.8555 333.703 62.8477 356.281 123.961L336.488 120.512ZM232 112.449C202.34 112.816 172.758 115.516 143.52 120.512L123.719 123.938C146.297 62.8086 186.137 20.8008 232 16.4141V112.449ZM146.246 136.281C174.582 131.434 203.254 128.816 232 128.449V232H104.121C104.656 201.23 109.324 170.676 118 141.152L146.246 136.281ZM104.121 248H232V351.551C203.254 351.184 174.578 348.566 146.238 343.719L118 338.848C109.324 309.324 104.656 278.77 104.121 248V248ZM143.512 359.488C172.75 364.492 202.336 367.203 232 367.594V463.594C186.137 459.184 146.297 417.191 123.719 356.078L143.512 359.488ZM248 367.594C277.66 367.203 307.242 364.492 336.48 359.488L356.281 356.062C333.703 417.191 293.863 459.199 248 463.586V367.594ZM333.754 343.719C305.418 348.566 276.746 351.184 248 351.551V248H375.879C375.344 278.77 370.676 309.324 362 338.848L333.754 343.719ZM391.871 232C391.344 202.309 387.125 172.797 379.312 144.145L447.566 155.922C457.402 180.129 462.898 205.883 463.801 232H391.871ZM439.473 138.289L374.047 127C362.285 88.6289 340.281 54.1914 310.398 27.3984C366.277 46.0469 412.617 85.8555 439.473 138.289ZM169.602 27.3984C139.719 54.1914 117.715 88.6289 105.953 127L40.5273 138.289C67.3828 85.8555 113.723 46.0469 169.602 27.3984ZM40.5273 341.711L105.953 353C117.715 391.371 139.719 425.809 169.602 452.602C113.723 433.953 67.3828 394.145 40.5273 341.711ZM310.398 452.602C340.281 425.809 362.285 391.371 374.047 353L439.473 341.711C412.617 394.145 366.277 433.953 310.398 452.602Z" fill="#E2F3F5"/>
</svg>
